# xmcd
#
# Track frame offsets: 
#        150
#        13022
#        25915
#        40265
#        55227
#        68655
#        83717
#        94185
#        107970
#        126220
#        140615
#        154005
#        167130
#        181972
#        196220
#        209645
#        224827
#        239527
#        253412
#        266927
#        280860
#
# Disc length: 3932 seconds
#
# Revision: 1
# Processed by: cddbd v1.5.2PL0 Copyright (c) Steve Scherf et al.
# Submitted via: ExactAudioCopy v0.99pb5
#
DISCID=470f5a15
DTITLE=Billie Holiday - Complete Collection - Disc 8
DYEAR=1936
DGENRE=Jazz
TTITLE0=St. louis blues(Take1)
TTITLE1=St. louis blues(Take2)
TTITLE2=Loveless love(Take1)
TTITLE3=Loveless love(Take2)
TTITLE4=Let's do it
TTITLE5=Georgia on my mind
TTITLE6=Romance in the dark
TTITLE7=All of me(Take1)
TTITLE8=All of me(Take3)
TTITLE9=I'm in a low down groove
TTITLE10=God bless the child
TTITLE11=Am I blue? 
TTITLE12=Solitude
TTITLE13=Jim
TTITLE14=I cover the waterfront
TTITLE15=Love me or leave me
TTITLE16=Gloomy sunday
TTITLE17=Wherever you are
TTITLE18=Mandy is two
TTITLE19=It's a sin to tell a lie
TTITLE20=Until the real thing comes along
EXTD=YEAR: 1936
EXTT0=
EXTT1=
EXTT2=
EXTT3=
EXTT4=
EXTT5=
EXTT6=
EXTT7=
EXTT8=
EXTT9=
EXTT10=
EXTT11=
EXTT12=
EXTT13=
EXTT14=
EXTT15=
EXTT16=
EXTT17=
EXTT18=
EXTT19=
EXTT20=
PLAYORDER=
